<?xml version="1.0" encoding="UTF-8"?>
<svg xmlns="http://www.w3.org/2000/svg" xmlns:xlink="http://www.w3.org/1999/xlink" width="375pt" height="374.999991pt" viewBox="0 0 375 374.999991" version="1.2">
<defs>
<clipPath id="clip1">
  <path d="M 5 19.039062 L 370 19.039062 L 370 355.789062 L 5 355.789062 Z M 5 19.039062 "/>
</clipPath>
</defs>
<g id="surface1">
<g clip-path="url(#clip1)" clip-rule="nonzero">
<path style=" stroke:none;fill-rule:nonzero;fill:rgb(0%,29.019165%,67.83905%);fill-opacity:1;" d="M 360.429688 232.164062 L 351.527344 253.261719 C 348.324219 260.113281 344.550781 266.742188 340.28125 272.988281 C 336.003906 279.234375 331.300781 285.207031 326.164062 290.765625 C 320.835938 296.167969 315.644531 301.800781 310.222656 307.003906 C 298.898438 316.949219 286.121094 325.367188 272.585938 331.882812 C 258.953125 338.34375 244.523438 343.03125 229.730469 345.675781 C 226.042969 346.363281 222.304688 346.875 218.59375 347.308594 C 214.929688 347.839844 211.105469 347.683594 207.363281 347.867188 L 196.09375 348.199219 C 192.386719 348.25 188.683594 347.902344 184.96875 347.546875 C 155.257812 344.210938 126.273438 333.203125 103.292969 314.433594 C 91.75 305.070312 81.496094 294.257812 73.09375 282.050781 C 70.96875 279.027344 68.960938 275.863281 67.046875 272.726562 C 65.121094 269.652344 63.523438 266.398438 61.875 263.058594 C 58.660156 256.421875 55.992188 249.554688 53.820312 242.507812 C 51.644531 235.519531 50.078125 228.238281 48.878906 220.960938 C 47.71875 213.695312 47.125 206.445312 47.265625 199.15625 C 47.472656 184.414062 49.695312 169.796875 54.375 156.015625 C 55.578125 152.539062 56.769531 149.222656 58.304688 145.925781 C 59.816406 142.550781 61.414062 139.238281 63.132812 136.007812 C 66.539062 129.574219 70.484375 123.296875 74.757812 117.570312 C 79.125 111.8125 84.015625 106.472656 89.351562 101.496094 C 94.734375 96.460938 100.320312 91.894531 106.367188 87.769531 C 118.078125 79.710938 131.789062 73.855469 145.691406 70.371094 C 159.738281 66.871094 174.222656 65.828125 188.480469 67.578125 C 195.5625 68.398438 202.757812 69.953125 209.683594 71.90625 C 216.570312 73.878906 223.226562 76.496094 229.433594 79.742188 C 235.71875 83.113281 241.835938 87.035156 247.503906 91.417969 C 248.925781 92.519531 250.332031 93.640625 251.714844 94.804688 C 253.101562 95.925781 254.316406 97.050781 255.582031 98.273438 C 258.101562 100.722656 260.621094 103.300781 262.917969 105.996094 C 281.496094 127.328125 291.585938 156.480469 288.839844 184.320312 C 288.199219 191.335938 286.847656 198.359375 284.894531 205.171875 C 284.03125 208.308594 282.722656 211.5625 281.328125 214.773438 C 279.921875 217.960938 278.320312 221.074219 276.554688 224.152344 C 273.015625 230.359375 268.976562 236.066406 264.359375 241.234375 C 259.796875 246.347656 254.394531 251 248.824219 254.945312 C 243.257812 258.683594 236.910156 261.902344 230.222656 264.65625 C 224.054688 267.269531 217.414062 268.867188 210.523438 269.730469 C 207.070312 270.152344 203.558594 270.402344 200 270.496094 C 196.359375 270.605469 193.246094 270.488281 189.796875 270.125 C 183.058594 269.410156 176.484375 267.75 170.183594 265.203125 C 157.554688 260.0625 145.953125 251.675781 137.621094 241.234375 C 133.472656 235.96875 130.0625 230.1875 127.660156 223.953125 C 125.195312 217.6875 123.664062 211.101562 123.078125 204.453125 C 121.996094 191.234375 124.855469 177.421875 131.738281 166.535156 C 138.636719 155.386719 149.316406 146.691406 161.570312 142.808594 C 173.671875 138.808594 187.191406 139.960938 197.992188 146.089844 C 208.625 152.039062 216.394531 163.246094 216.828125 174.777344 C 217.21875 180.476562 215.738281 185.910156 212.75 190.617188 C 212.019531 191.789062 211.171875 192.882812 210.253906 193.910156 C 209.359375 194.914062 208.289062 195.996094 207.4375 196.605469 C 205.648438 198.035156 203.390625 199.085938 201.21875 199.558594 C 199.023438 200.0625 196.898438 199.96875 195.082031 199.417969 C 193.835938 199.039062 192.578125 198.328125 191.679688 197.582031 L 192.628906 197.292969 C 194.835938 196.628906 197.023438 195.492188 198.851562 193.960938 C 200.6875 192.421875 202.0625 190.578125 203.066406 188.714844 C 205.042969 184.945312 205.574219 181.214844 205.34375 177.648438 C 204.796875 170.058594 200.511719 164.207031 195.5625 160.546875 C 193.070312 158.730469 190.40625 157.398438 187.730469 156.496094 C 186.40625 156.035156 185.03125 155.675781 183.582031 155.386719 C 182.234375 155.175781 180.859375 154.945312 179.542969 154.886719 C 174.230469 154.46875 168.699219 155.359375 163.777344 157.371094 C 158.824219 159.355469 154.496094 162.414062 150.945312 165.972656 C 149.144531 167.742188 147.609375 169.660156 146.082031 171.777344 L 144.117188 174.945312 C 143.550781 176.015625 142.96875 177.074219 142.445312 178.167969 C 138.257812 186.949219 137.007812 197.082031 138.554688 206.457031 C 139.304688 211.15625 140.699219 215.691406 142.613281 219.941406 C 144.5625 224.289062 147.089844 228.222656 149.984375 231.832031 C 155.804688 239.105469 163.425781 244.714844 171.539062 248.503906 C 173.574219 249.457031 175.617188 250.289062 177.738281 251.050781 C 179.894531 251.839844 182.355469 252.519531 184.449219 252.960938 C 188.808594 253.921875 193.359375 254.457031 197.875 254.496094 C 206.917969 254.5625 215.679688 252.800781 223.96875 249.679688 C 232.257812 246.5 239.953125 241.710938 246.476562 235.75 C 249.746094 232.769531 252.714844 229.535156 255.4375 226.011719 C 258.042969 222.546875 260.386719 219.019531 262.488281 215.207031 C 266.691406 207.628906 269.714844 199.203125 271.148438 190.550781 C 272.527344 181.964844 272.722656 173.429688 271.605469 164.832031 C 270.503906 156.277344 268.078125 147.878906 264.515625 140.066406 C 260.914062 132.140625 256.160156 125.066406 250.660156 118.558594 C 239.558594 105.558594 224.742188 95.898438 208.785156 90.511719 C 192.6875 84.964844 175.207031 84.117188 158.921875 86.820312 C 150.835938 88.082031 142.390625 90.34375 134.628906 93.847656 C 126.847656 97.25 119.589844 102.027344 113.304688 106.738281 C 99.953125 116.492188 88.648438 129.632812 81.132812 144.433594 C 77.292969 151.832031 74.394531 159.519531 72.136719 167.457031 C 69.964844 175.445312 68.53125 183.664062 68.121094 191.929688 C 67.230469 208.5 69.859375 224.976562 75.554688 240.464844 C 81.261719 255.753906 89.871094 270.140625 101.09375 282.132812 C 103.914062 285.128906 106.777344 287.972656 109.925781 290.738281 C 113.105469 293.503906 116.183594 295.90625 119.496094 298.320312 C 126.113281 303.109375 132.902344 307.246094 140.351562 310.917969 C 147.691406 314.488281 155.5 317.304688 163.351562 319.3125 C 171.136719 321.296875 179.082031 322.765625 187.210938 323.484375 C 203.421875 324.921875 219.859375 323.144531 235.335938 318.875 C 251.042969 314.5 265.664062 307.238281 278.757812 297.96875 C 291.878906 288.800781 303.570312 277.257812 312.859375 264.238281 C 317.523438 257.78125 321.761719 250.894531 325.277344 243.652344 C 327.058594 240.011719 328.628906 236.394531 330.101562 232.550781 C 331.449219 228.710938 332.472656 225.015625 333.667969 221.238281 C 334.773438 217.4375 336.089844 213.851562 336.957031 209.78125 C 337.855469 205.855469 338.570312 201.890625 339.09375 197.921875 C 340.160156 189.976562 340.5 182.027344 340.40625 174.15625 C 340.292969 158.320312 337.476562 142.226562 332.21875 127.347656 C 321.960938 97.28125 302.203125 70.875 277.28125 51.777344 C 264.726562 42.070312 250.359375 34.890625 235.765625 29.640625 C 232.121094 28.292969 228.421875 27.023438 224.675781 25.886719 C 220.828125 24.722656 217.058594 23.84375 213.246094 22.992188 C 205.617188 21.320312 197.855469 20.140625 190.039062 19.578125 C 186.160156 19.339844 182.175781 19.042969 178.277344 19.289062 L 166.632812 19.925781 C 158.875 20.109375 151.058594 21.292969 143.472656 22.878906 C 135.847656 24.476562 128.359375 26.625 121.042969 29.191406 C 113.570312 31.773438 106.667969 35.074219 99.726562 38.496094 C 85.796875 45.398438 73.074219 54.578125 61.808594 65.136719 C 56.402344 70.652344 51.210938 76.335938 45.914062 81.921875 C 40.898438 87.816406 36.335938 94.019531 32.203125 100.535156 C 15.976562 126.753906 6.589844 156.921875 5.164062 187.449219 C 6.554688 172.261719 9.46875 157.167969 14.585938 142.878906 L 23.449219 121.867188 C 26.746094 115.050781 30.550781 108.480469 34.796875 102.230469 C 39.042969 95.988281 43.675781 89.953125 48.699219 84.363281 C 54.050781 79.007812 59.296875 73.542969 64.703125 68.289062 C 75.964844 58.261719 88.492188 49.707031 102.109375 43.378906 C 108.933594 40.21875 115.933594 37.105469 122.964844 34.886719 C 130.117188 32.578125 137.386719 30.691406 144.75 29.34375 C 152.140625 27.996094 159.5 27.0625 167.035156 27.078125 L 178.273438 26.746094 C 182.003906 26.59375 185.65625 26.976562 189.378906 27.292969 C 196.78125 28.011719 204.125 29.320312 211.371094 31.097656 C 214.984375 32 218.640625 32.953125 222.070312 34.089844 C 225.601562 35.261719 229.097656 36.558594 232.578125 37.945312 C 246.558594 43.386719 259.648438 50.394531 271.0625 59.675781 C 282.539062 69.046875 292.925781 79.742188 301.355469 91.820312 C 309.855469 103.898438 316.539062 117.109375 321.046875 131.085938 C 325.691406 145.097656 327.929688 159.511719 327.789062 174.207031 C 327.683594 189.050781 325.960938 203.355469 320.84375 217.191406 C 319.671875 220.667969 318.589844 224.316406 317.351562 227.652344 C 316.035156 230.914062 314.511719 234.277344 312.871094 237.464844 C 309.589844 243.886719 305.722656 250 301.378906 255.859375 C 292.773438 267.582031 282.285156 277.652344 270.273438 285.828125 C 258.355469 294.054688 245.113281 300.351562 231.339844 303.996094 C 217.335938 307.648438 202.914062 308.984375 188.695312 307.546875 C 181.617188 306.828125 174.515625 305.429688 167.53125 303.550781 C 160.617188 301.679688 154.023438 299.195312 147.671875 296.011719 C 135.132812 289.523438 123.089844 280.886719 113.769531 270.492188 C 104.265625 260.039062 96.945312 247.714844 92.09375 234.375 C 87.355469 221.199219 85.191406 206.882812 86.078125 192.976562 C 86.472656 186 87.746094 179.101562 89.625 172.386719 C 91.597656 165.667969 94.160156 159.015625 97.410156 152.894531 C 103.851562 140.527344 113.0625 129.964844 124.421875 121.785156 C 130.378906 117.40625 136.019531 113.8125 142.261719 111.125 C 148.453125 108.402344 154.898438 106.699219 161.898438 105.648438 C 175.71875 103.492188 189.644531 104.371094 202.453125 108.878906 C 215.375 113.382812 226.9375 121.125 235.6875 131.367188 C 240.015625 136.515625 243.84375 142.25 246.523438 148.25 C 249.269531 154.332031 251.105469 160.757812 251.9375 167.34375 C 252.792969 173.882812 252.597656 180.765625 251.539062 187.242188 C 250.453125 193.644531 248.242188 199.789062 245.039062 205.550781 C 243.453125 208.421875 241.550781 211.257812 239.566406 213.890625 C 237.609375 216.398438 235.394531 218.804688 233.019531 220.953125 C 228.261719 225.273438 222.761719 228.671875 216.785156 230.953125 C 210.792969 233.1875 204.320312 234.464844 198.085938 234.382812 C 194.964844 234.34375 191.890625 233.976562 188.796875 233.289062 C 187.15625 232.929688 185.9375 232.582031 184.507812 232.058594 C 183.035156 231.523438 181.539062 230.914062 180.125 230.242188 C 168.730469 225 160.371094 214.871094 158.605469 203.253906 C 157.710938 197.574219 158.464844 191.898438 160.855469 186.878906 L 161.820312 185.023438 L 162.871094 183.324219 C 163.597656 182.367188 164.433594 181.277344 165.371094 180.382812 C 167.210938 178.554688 169.269531 177.148438 171.417969 176.308594 C 175.554688 174.546875 181.007812 175.097656 183.394531 177.023438 C 183.558594 177.140625 183.679688 177.269531 183.8125 177.398438 C 182.695312 177.605469 181.484375 177.925781 180.148438 178.433594 C 177.78125 179.378906 175.195312 181.277344 173.589844 183.527344 C 172.742188 184.695312 172.40625 185.371094 171.988281 186.128906 C 171.570312 186.863281 171.199219 187.824219 170.851562 188.679688 C 169.53125 192.300781 169.300781 196.535156 170.183594 200.105469 C 171.019531 203.730469 172.667969 206.746094 174.613281 209.226562 C 178.597656 214.253906 183.628906 217.21875 189.128906 218.964844 C 194.644531 220.636719 200.429688 220.671875 205.691406 219.464844 C 210.980469 218.261719 215.824219 215.941406 220.035156 212.625 C 222.238281 210.921875 223.855469 209.246094 225.511719 207.40625 C 227.132812 205.570312 228.621094 203.613281 229.921875 201.542969 C 232.558594 197.414062 234.511719 192.867188 235.738281 188.136719 C 236.351562 185.753906 236.753906 183.382812 237 180.890625 C 237.265625 178.25 237.203125 175.984375 237.09375 173.652344 C 236.835938 168.96875 235.9375 164.210938 234.371094 159.6875 C 232.808594 155.117188 230.605469 150.96875 228.082031 147.148438 C 222.964844 139.414062 215.875 132.992188 207.890625 128.519531 C 191.945312 119.496094 172.34375 118.089844 155.386719 123.738281 C 138.386719 129.199219 123.933594 141.152344 114.792969 156.035156 C 112.523438 159.75 110.460938 163.625 108.828125 167.828125 C 107.199219 171.96875 105.945312 176.058594 105.027344 180.320312 C 103.125 188.789062 102.625 197.535156 103.332031 206.136719 C 104.105469 214.738281 106.113281 223.203125 109.273438 231.175781 C 112.40625 239.222656 116.867188 246.769531 122.21875 253.503906 C 133.0625 266.984375 147.25 276.902344 162.988281 283.21875 C 170.910156 286.355469 179.339844 288.414062 187.839844 289.242188 C 192.011719 289.667969 196.566406 289.777344 200.582031 289.613281 C 204.675781 289.472656 208.808594 289.152344 212.957031 288.609375 C 221.242188 287.507812 229.625 285.453125 237.546875 282.035156 C 244.984375 278.886719 252.375 275.15625 259.480469 270.285156 C 266.371094 265.335938 272.585938 259.867188 278.191406 253.523438 C 283.734375 247.230469 288.503906 240.3125 292.492188 233.195312 C 294.507812 229.617188 296.382812 225.898438 298.035156 222.070312 C 299.660156 218.25 301.191406 214.371094 302.347656 210.125 C 304.554688 202.203125 306.046875 194.117188 306.734375 185.882812 C 307.082031 181.773438 307.222656 177.640625 307.152344 173.511719 C 307.113281 171.476562 307.03125 169.375 306.878906 167.207031 C 306.675781 165.023438 306.453125 163.097656 306.183594 161.046875 C 305.113281 152.949219 303.253906 144.820312 300.535156 137 C 295.148438 121.535156 286.800781 106.941406 275.839844 94.683594 C 273.125 91.589844 270.257812 88.71875 267.246094 85.878906 C 265.742188 84.457031 264.121094 83.011719 262.511719 81.738281 C 260.949219 80.457031 259.347656 79.210938 257.726562 77.992188 C 251.210938 73.097656 244.339844 68.804688 237.078125 65.039062 C 229.664062 61.28125 221.945312 58.386719 214.085938 56.242188 C 206.25 54.140625 198.398438 52.554688 190.253906 51.703125 C 174.066406 49.921875 157.503906 51.347656 141.894531 55.46875 C 126.179688 59.660156 111.339844 66.203125 97.902344 75.652344 C 91.347656 80.242188 85.121094 85.476562 79.394531 90.984375 C 73.605469 96.523438 68.1875 102.582031 63.386719 109.089844 C 58.578125 115.6875 54.476562 122.492188 50.847656 129.65625 C 49.035156 133.214844 47.375 136.832031 45.820312 140.472656 C 44.195312 144.152344 42.847656 148.066406 41.625 151.847656 C 36.726562 167.175781 34.613281 183.238281 34.679688 199.089844 C 34.671875 207.113281 35.484375 215.167969 36.878906 222.988281 C 38.308594 230.785156 40.109375 238.476562 42.621094 246.066406 C 45.089844 253.605469 48.117188 260.996094 51.707031 268.074219 C 53.503906 271.5625 55.359375 275.160156 57.554688 278.539062 C 59.6875 281.902344 61.847656 285.164062 64.179688 288.367188 C 73.40625 301.210938 84.574219 312.714844 97.089844 322.304688 C 109.621094 331.929688 123.652344 339.652344 138.425781 345.0625 C 145.757812 347.769531 153.402344 350.046875 161.019531 351.675781 C 168.65625 353.355469 176.417969 354.601562 184.253906 355.230469 C 188.160156 355.511719 192.113281 355.777344 196.0625 355.628906 L 207.746094 355 C 211.644531 354.710938 215.511719 354.773438 219.433594 354.113281 C 223.3125 353.558594 227.15625 352.933594 230.976562 352.125 C 246.269531 348.992188 261.101562 343.753906 274.972656 336.746094 C 288.855469 329.625 301.671875 320.703125 313.101562 310.15625 C 318.589844 304.628906 323.644531 298.855469 328.921875 293.222656 C 334.023438 287.398438 338.703125 281.210938 342.859375 274.683594 C 347.011719 268.148438 350.613281 261.300781 353.652344 254.175781 L 361.890625 232.667969 C 366.523438 217.96875 368.996094 202.726562 369.898438 187.449219 C 368.488281 202.683594 365.496094 217.800781 360.429688 232.164062 "/>
</g>
</g>
</svg>
