<?xml version="1.0" encoding="UTF-8"?>
<svg xmlns="http://www.w3.org/2000/svg" xmlns:xlink="http://www.w3.org/1999/xlink" width="375pt" height="374.999991pt" viewBox="0 0 375 374.999991" version="1.2">
<defs>
<filter id="alpha" filterUnits="objectBoundingBox" x="0%" y="0%" width="100%" height="100%">
  <feColorMatrix type="matrix" in="SourceGraphic" values="0 0 0 0 1 0 0 0 0 1 0 0 0 0 1 0 0 0 1 0"/>
</filter>
<mask id="mask0">
  <g filter="url(#alpha)">
<rect x="0" y="0" width="375" height="374.999991" style="fill:rgb(0%,0%,0%);fill-opacity:0.498;stroke:none;"/>
  </g>
</mask>
<clipPath id="clip1">
  <rect x="0" y="0" width="367" height="367"/>
</clipPath>
<g id="surface5" clip-path="url(#clip1)">
<path style=" stroke:none;fill-rule:nonzero;fill:rgb(100%,100%,100%);fill-opacity:1;" d="M 183.5 1.007812 C 180.511719 1.007812 177.527344 1.082031 174.546875 1.226562 C 171.5625 1.375 168.585938 1.59375 165.613281 1.886719 C 162.640625 2.179688 159.675781 2.542969 156.722656 2.984375 C 153.769531 3.421875 150.828125 3.929688 147.898438 4.515625 C 144.96875 5.097656 142.054688 5.75 139.15625 6.476562 C 136.261719 7.203125 133.382812 8 130.523438 8.867188 C 127.667969 9.730469 124.832031 10.667969 122.019531 11.675781 C 119.207031 12.679688 116.421875 13.753906 113.664062 14.898438 C 110.902344 16.042969 108.175781 17.25 105.472656 18.527344 C 102.773438 19.804688 100.109375 21.148438 97.472656 22.554688 C 94.839844 23.964844 92.242188 25.433594 89.679688 26.972656 C 87.117188 28.507812 84.597656 30.105469 82.113281 31.761719 C 79.628906 33.421875 77.1875 35.140625 74.789062 36.921875 C 72.390625 38.699219 70.035156 40.535156 67.726562 42.429688 C 65.417969 44.324219 63.160156 46.277344 60.945312 48.28125 C 58.734375 50.289062 56.570312 52.347656 54.457031 54.457031 C 52.347656 56.570312 50.289062 58.734375 48.28125 60.945312 C 46.277344 63.160156 44.324219 65.417969 42.429688 67.726562 C 40.535156 70.035156 38.699219 72.390625 36.921875 74.789062 C 35.140625 77.1875 33.421875 79.628906 31.761719 82.113281 C 30.105469 84.597656 28.507812 87.117188 26.972656 89.679688 C 25.433594 92.242188 23.964844 94.839844 22.554688 97.472656 C 21.148438 100.109375 19.804688 102.773438 18.527344 105.472656 C 17.25 108.175781 16.042969 110.902344 14.898438 113.664062 C 13.753906 116.421875 12.679688 119.207031 11.675781 122.019531 C 10.667969 124.832031 9.730469 127.667969 8.867188 130.523438 C 8 133.382812 7.203125 136.261719 6.476562 139.15625 C 5.75 142.054688 5.097656 144.96875 4.515625 147.898438 C 3.929688 150.828125 3.421875 153.769531 2.984375 156.722656 C 2.542969 159.675781 2.179688 162.640625 1.886719 165.613281 C 1.59375 168.585938 1.375 171.5625 1.226562 174.546875 C 1.082031 177.527344 1.007812 180.511719 1.007812 183.5 C 1.007812 186.488281 1.082031 189.472656 1.226562 192.453125 C 1.375 195.4375 1.59375 198.414062 1.886719 201.386719 C 2.179688 204.359375 2.542969 207.324219 2.984375 210.277344 C 3.421875 213.230469 3.929688 216.171875 4.515625 219.101562 C 5.097656 222.03125 5.75 224.945312 6.476562 227.84375 C 7.203125 230.738281 8 233.617188 8.867188 236.476562 C 9.730469 239.332031 10.667969 242.167969 11.675781 244.980469 C 12.679688 247.792969 13.753906 250.578125 14.898438 253.335938 C 16.042969 256.097656 17.25 258.824219 18.527344 261.527344 C 19.804688 264.226562 21.148438 266.890625 22.554688 269.527344 C 23.964844 272.160156 25.433594 274.757812 26.972656 277.320312 C 28.507812 279.882812 30.105469 282.402344 31.761719 284.886719 C 33.421875 287.371094 35.140625 289.8125 36.921875 292.210938 C 38.699219 294.609375 40.535156 296.964844 42.429688 299.273438 C 44.324219 301.582031 46.277344 303.839844 48.28125 306.054688 C 50.289062 308.265625 52.347656 310.429688 54.457031 312.542969 C 56.570312 314.652344 58.734375 316.710938 60.945312 318.71875 C 63.160156 320.722656 65.417969 322.675781 67.726562 324.570312 C 70.035156 326.464844 72.390625 328.300781 74.789062 330.078125 C 77.1875 331.859375 79.628906 333.578125 82.113281 335.238281 C 84.597656 336.894531 87.117188 338.492188 89.679688 340.027344 C 92.242188 341.566406 94.839844 343.035156 97.472656 344.445312 C 100.109375 345.851562 102.773438 347.195312 105.472656 348.472656 C 108.175781 349.75 110.902344 350.957031 113.664062 352.101562 C 116.421875 353.242188 119.207031 354.320312 122.019531 355.324219 C 124.832031 356.332031 127.667969 357.265625 130.523438 358.132812 C 133.382812 359 136.261719 359.796875 139.15625 360.523438 C 142.054688 361.25 144.96875 361.902344 147.898438 362.484375 C 150.828125 363.070312 153.769531 363.578125 156.722656 364.015625 C 159.675781 364.457031 162.640625 364.820312 165.613281 365.113281 C 168.585938 365.40625 171.5625 365.625 174.546875 365.773438 C 177.527344 365.917969 180.511719 365.992188 183.5 365.992188 C 186.488281 365.992188 189.472656 365.917969 192.453125 365.773438 C 195.4375 365.625 198.414062 365.40625 201.386719 365.113281 C 204.359375 364.820312 207.324219 364.457031 210.277344 364.015625 C 213.230469 363.578125 216.171875 363.070312 219.101562 362.484375 C 222.03125 361.902344 224.945312 361.25 227.84375 360.523438 C 230.738281 359.796875 233.617188 359 236.476562 358.132812 C 239.332031 357.265625 242.167969 356.332031 244.980469 355.324219 C 247.792969 354.320312 250.578125 353.242188 253.335938 352.101562 C 256.097656 350.957031 258.824219 349.75 261.527344 348.472656 C 264.226562 347.195312 266.890625 345.851562 269.527344 344.445312 C 272.160156 343.035156 274.757812 341.566406 277.320312 340.027344 C 279.882812 338.492188 282.402344 336.894531 284.886719 335.238281 C 287.371094 333.578125 289.8125 331.859375 292.210938 330.078125 C 294.609375 328.300781 296.964844 326.464844 299.273438 324.570312 C 301.582031 322.675781 303.839844 320.722656 306.054688 318.71875 C 308.265625 316.710938 310.429688 314.652344 312.542969 312.542969 C 314.652344 310.429688 316.710938 308.265625 318.71875 306.054688 C 320.722656 303.839844 322.675781 301.582031 324.570312 299.273438 C 326.464844 296.964844 328.300781 294.609375 330.078125 292.210938 C 331.859375 289.8125 333.578125 287.371094 335.238281 284.886719 C 336.894531 282.402344 338.492188 279.882812 340.027344 277.320312 C 341.566406 274.757812 343.035156 272.160156 344.445312 269.527344 C 345.851562 266.890625 347.195312 264.226562 348.472656 261.527344 C 349.75 258.824219 350.957031 256.097656 352.101562 253.335938 C 353.242188 250.578125 354.320312 247.792969 355.324219 244.980469 C 356.332031 242.167969 357.265625 239.332031 358.132812 236.476562 C 359 233.617188 359.796875 230.738281 360.523438 227.84375 C 361.25 224.945312 361.902344 222.03125 362.484375 219.101562 C 363.070312 216.171875 363.578125 213.230469 364.015625 210.277344 C 364.457031 207.324219 364.820312 204.359375 365.113281 201.386719 C 365.40625 198.414062 365.625 195.4375 365.773438 192.453125 C 365.917969 189.472656 365.992188 186.488281 365.992188 183.5 C 365.992188 180.511719 365.917969 177.527344 365.773438 174.546875 C 365.625 171.5625 365.40625 168.585938 365.113281 165.613281 C 364.820312 162.640625 364.457031 159.675781 364.015625 156.722656 C 363.578125 153.769531 363.070312 150.828125 362.484375 147.898438 C 361.902344 144.96875 361.25 142.054688 360.523438 139.15625 C 359.796875 136.261719 359 133.382812 358.132812 130.523438 C 357.265625 127.667969 356.332031 124.832031 355.324219 122.019531 C 354.320312 119.207031 353.242188 116.421875 352.101562 113.664062 C 350.957031 110.902344 349.75 108.175781 348.472656 105.472656 C 347.195312 102.773438 345.851562 100.109375 344.445312 97.472656 C 343.035156 94.839844 341.566406 92.242188 340.027344 89.679688 C 338.492188 87.117188 336.894531 84.597656 335.238281 82.113281 C 333.578125 79.628906 331.859375 77.1875 330.078125 74.789062 C 328.300781 72.390625 326.464844 70.035156 324.570312 67.726562 C 322.675781 65.417969 320.722656 63.160156 318.71875 60.945312 C 316.710938 58.734375 314.652344 56.570312 312.542969 54.457031 C 310.429688 52.347656 308.265625 50.289062 306.054688 48.28125 C 303.839844 46.277344 301.582031 44.324219 299.273438 42.429688 C 296.964844 40.535156 294.609375 38.699219 292.210938 36.921875 C 289.8125 35.140625 287.371094 33.421875 284.886719 31.761719 C 282.402344 30.105469 279.882812 28.507812 277.320312 26.972656 C 274.757812 25.433594 272.160156 23.964844 269.527344 22.554688 C 266.890625 21.148438 264.226562 19.804688 261.527344 18.527344 C 258.824219 17.25 256.097656 16.042969 253.335938 14.898438 C 250.578125 13.753906 247.792969 12.679688 244.980469 11.675781 C 242.167969 10.667969 239.332031 9.730469 236.476562 8.867188 C 233.617188 8 230.738281 7.203125 227.84375 6.476562 C 224.945312 5.75 222.03125 5.097656 219.101562 4.515625 C 216.171875 3.929688 213.230469 3.421875 210.277344 2.984375 C 207.324219 2.542969 204.359375 2.179688 201.386719 1.886719 C 198.414062 1.59375 195.4375 1.375 192.453125 1.226562 C 189.472656 1.082031 186.488281 1.007812 183.5 1.007812 Z M 183.5 1.007812 "/>
</g>
<clipPath id="clip2">
  <path d="M 6.136719 20.191406 L 369 20.191406 L 369 354.691406 L 6.136719 354.691406 Z M 6.136719 20.191406 "/>
</clipPath>
</defs>
<g id="surface1">
<use xlink:href="#surface5" transform="matrix(1,0,0,1,4,4)" mask="url(#mask0)"/>
<g clip-path="url(#clip2)" clip-rule="nonzero">
<path style=" stroke:none;fill-rule:nonzero;fill:rgb(0%,29.019165%,67.83905%);fill-opacity:1;" d="M 359.484375 231.890625 L 350.636719 252.847656 C 347.457031 259.65625 343.703125 266.238281 339.460938 272.441406 C 335.210938 278.648438 330.539062 284.582031 325.429688 290.101562 C 320.136719 295.46875 314.976562 301.0625 309.589844 306.230469 C 298.332031 316.113281 285.636719 324.472656 272.183594 330.945312 C 258.632812 337.363281 244.292969 342.015625 229.59375 344.648438 C 225.925781 345.328125 222.214844 345.835938 218.523438 346.269531 C 214.882812 346.796875 211.082031 346.640625 207.363281 346.824219 L 196.164062 347.148438 C 192.480469 347.203125 188.800781 346.855469 185.105469 346.503906 C 155.582031 343.1875 126.777344 332.253906 103.9375 313.609375 C 92.464844 304.3125 82.273438 293.570312 73.921875 281.445312 C 71.8125 278.441406 69.816406 275.300781 67.914062 272.183594 C 66 269.132812 64.414062 265.898438 62.773438 262.582031 C 59.582031 255.988281 56.929688 249.167969 54.769531 242.167969 C 52.609375 235.226562 51.050781 227.992188 49.859375 220.765625 C 48.707031 213.546875 48.117188 206.34375 48.253906 199.105469 C 48.460938 184.460938 50.667969 169.941406 55.320312 156.25 C 56.515625 152.800781 57.703125 149.503906 59.226562 146.230469 C 60.730469 142.878906 62.316406 139.585938 64.023438 136.378906 C 67.410156 129.988281 71.328125 123.753906 75.578125 118.066406 C 79.917969 112.34375 84.78125 107.042969 90.082031 102.097656 C 95.429688 97.097656 100.984375 92.558594 106.992188 88.460938 C 118.632812 80.457031 132.257812 74.640625 146.074219 71.179688 C 160.035156 67.703125 174.425781 66.667969 188.597656 68.40625 C 195.636719 69.222656 202.785156 70.765625 209.667969 72.703125 C 216.511719 74.667969 223.128906 77.261719 229.296875 80.488281 C 235.546875 83.835938 241.625 87.730469 247.257812 92.085938 C 248.671875 93.179688 250.070312 94.296875 251.441406 95.453125 C 252.820312 96.566406 254.027344 97.683594 255.285156 98.898438 C 257.789062 101.328125 260.292969 103.890625 262.574219 106.566406 C 281.039062 127.757812 291.066406 156.714844 288.339844 184.367188 C 287.703125 191.339844 286.359375 198.316406 284.414062 205.082031 C 283.558594 208.195312 282.257812 211.429688 280.871094 214.617188 C 279.476562 217.785156 277.882812 220.875 276.128906 223.933594 C 272.609375 230.101562 268.597656 235.769531 264.007812 240.902344 C 259.476562 245.980469 254.105469 250.605469 248.570312 254.519531 C 243.035156 258.238281 236.726562 261.429688 230.082031 264.167969 C 223.953125 266.761719 217.351562 268.347656 210.503906 269.207031 C 207.074219 269.625 203.582031 269.875 200.046875 269.964844 C 196.429688 270.078125 193.332031 269.960938 189.90625 269.597656 C 183.210938 268.890625 176.675781 267.242188 170.414062 264.707031 C 157.867188 259.605469 146.335938 251.273438 138.050781 240.898438 C 133.933594 235.671875 130.539062 229.929688 128.152344 223.734375 C 125.703125 217.511719 124.183594 210.96875 123.601562 204.367188 C 122.527344 191.234375 125.367188 177.515625 132.207031 166.699219 C 139.0625 155.625 149.675781 146.992188 161.855469 143.132812 C 173.878906 139.160156 187.320312 140.304688 198.050781 146.394531 C 208.621094 152.300781 216.339844 163.433594 216.773438 174.886719 C 217.160156 180.550781 215.691406 185.949219 212.71875 190.625 C 211.992188 191.785156 211.152344 192.875 210.238281 193.894531 C 209.347656 194.890625 208.285156 195.964844 207.441406 196.570312 C 205.660156 197.992188 203.414062 199.035156 201.257812 199.503906 C 199.078125 200.003906 196.964844 199.914062 195.160156 199.363281 C 193.921875 198.988281 192.671875 198.285156 191.777344 197.539062 L 192.722656 197.253906 C 194.914062 196.597656 197.085938 195.464844 198.90625 193.941406 C 200.730469 192.417969 202.097656 190.582031 203.09375 188.734375 C 205.058594 184.988281 205.585938 181.28125 205.355469 177.742188 C 204.8125 170.203125 200.554688 164.390625 195.636719 160.753906 C 193.160156 158.949219 190.515625 157.625 187.851562 156.730469 C 186.539062 156.273438 185.171875 155.914062 183.730469 155.628906 C 182.390625 155.417969 181.023438 155.1875 179.714844 155.128906 C 174.433594 154.71875 168.9375 155.601562 164.050781 157.601562 C 159.125 159.570312 154.820312 162.609375 151.292969 166.140625 C 149.507812 167.902344 147.976562 169.804688 146.460938 171.910156 L 144.507812 175.054688 C 143.949219 176.117188 143.371094 177.171875 142.847656 178.257812 C 138.683594 186.976562 137.441406 197.046875 138.980469 206.355469 C 139.726562 211.023438 141.113281 215.53125 143.015625 219.75 C 144.953125 224.070312 147.464844 227.976562 150.34375 231.5625 C 156.121094 238.789062 163.699219 244.359375 171.761719 248.121094 C 173.785156 249.070312 175.816406 249.894531 177.921875 250.65625 C 180.066406 251.4375 182.511719 252.113281 184.59375 252.550781 C 188.925781 253.503906 193.445312 254.039062 197.933594 254.074219 C 206.921875 254.140625 215.628906 252.390625 223.867188 249.289062 C 232.105469 246.132812 239.753906 241.375 246.238281 235.453125 C 249.488281 232.492188 252.4375 229.28125 255.140625 225.78125 C 257.730469 222.339844 260.058594 218.835938 262.152344 215.046875 C 266.324219 207.519531 269.328125 199.152344 270.757812 190.558594 C 272.125 182.03125 272.320312 173.550781 271.210938 165.011719 C 270.113281 156.515625 267.703125 148.171875 264.164062 140.410156 C 260.585938 132.535156 255.859375 125.511719 250.390625 119.046875 C 239.363281 106.132812 224.636719 96.539062 208.777344 91.1875 C 192.777344 85.675781 175.40625 84.832031 159.222656 87.519531 C 151.1875 88.773438 142.796875 91.019531 135.082031 94.5 C 127.34375 97.878906 120.132812 102.625 113.886719 107.304688 C 100.617188 116.992188 89.382812 130.042969 81.910156 144.746094 C 78.097656 152.097656 75.21875 159.734375 72.976562 167.617188 C 70.8125 175.554688 69.390625 183.714844 68.984375 191.925781 C 68.097656 208.382812 70.707031 224.75 76.371094 240.140625 C 82.042969 255.324219 90.597656 269.613281 101.75 281.527344 C 104.554688 284.503906 107.402344 287.328125 110.527344 290.074219 C 113.6875 292.820312 116.75 295.210938 120.039062 297.605469 C 126.617188 302.363281 133.363281 306.472656 140.765625 310.121094 C 148.0625 313.664062 155.820312 316.464844 163.625 318.457031 C 171.363281 320.429688 179.257812 321.890625 187.335938 322.601562 C 203.449219 324.027344 219.78125 322.265625 235.164062 318.023438 C 250.777344 313.675781 265.308594 306.464844 278.316406 297.257812 C 291.359375 288.148438 302.976562 276.683594 312.207031 263.75 C 316.84375 257.335938 321.054688 250.496094 324.550781 243.300781 C 326.320312 239.6875 327.882812 236.09375 329.34375 232.277344 C 330.6875 228.464844 331.699219 224.789062 332.886719 221.039062 C 333.988281 217.265625 335.292969 213.703125 336.15625 209.65625 C 337.050781 205.757812 337.761719 201.824219 338.28125 197.878906 C 339.339844 189.984375 339.679688 182.089844 339.585938 174.269531 C 339.472656 158.539062 336.671875 142.554688 331.449219 127.777344 C 321.253906 97.910156 301.621094 71.683594 276.851562 52.710938 C 264.371094 43.066406 250.097656 35.9375 235.59375 30.71875 C 231.972656 29.382812 228.292969 28.121094 224.570312 26.992188 C 220.746094 25.835938 217 24.960938 213.210938 24.117188 C 205.628906 22.457031 197.914062 21.285156 190.148438 20.726562 C 186.292969 20.492188 182.332031 20.195312 178.457031 20.441406 L 166.882812 21.070312 C 159.175781 21.253906 151.410156 22.429688 143.867188 24.007812 C 136.289062 25.59375 128.847656 27.726562 121.578125 30.277344 C 114.152344 32.839844 107.292969 36.117188 100.394531 39.515625 C 86.550781 46.375 73.902344 55.492188 62.707031 65.980469 C 57.335938 71.457031 52.175781 77.105469 46.914062 82.652344 C 41.925781 88.511719 37.394531 94.671875 33.285156 101.144531 C 17.160156 127.183594 7.832031 157.152344 6.414062 187.476562 C 7.796875 172.390625 10.691406 157.398438 15.78125 143.203125 L 24.585938 122.332031 C 27.863281 115.5625 31.644531 109.035156 35.863281 102.824219 C 40.085938 96.628906 44.6875 90.632812 49.679688 85.078125 C 55 79.757812 60.210938 74.328125 65.585938 69.113281 C 76.777344 59.152344 89.226562 50.652344 102.757812 44.371094 C 109.542969 41.230469 116.5 38.136719 123.488281 35.933594 C 130.597656 33.640625 137.820312 31.765625 145.136719 30.425781 C 152.484375 29.089844 159.796875 28.160156 167.285156 28.175781 L 178.453125 27.84375 C 182.160156 27.695312 185.792969 28.074219 189.492188 28.386719 C 196.847656 29.105469 204.148438 30.402344 211.347656 32.167969 C 214.941406 33.0625 218.570312 34.011719 221.980469 35.144531 C 225.488281 36.304688 228.964844 37.59375 232.425781 38.972656 C 246.316406 44.375 259.328125 51.335938 270.667969 60.558594 C 282.078125 69.867188 292.398438 80.492188 300.773438 92.484375 C 309.222656 104.484375 315.867188 117.605469 320.34375 131.492188 C 324.960938 145.40625 327.183594 159.722656 327.046875 174.320312 C 326.941406 189.066406 325.230469 203.277344 320.144531 217.019531 C 318.976562 220.472656 317.902344 224.097656 316.675781 227.410156 C 315.363281 230.648438 313.847656 233.988281 312.222656 237.15625 C 308.960938 243.539062 305.113281 249.609375 300.796875 255.429688 C 292.246094 267.074219 281.820312 277.078125 269.886719 285.199219 C 258.042969 293.367188 244.878906 299.621094 231.191406 303.242188 C 217.277344 306.875 202.945312 308.199219 188.8125 306.769531 C 181.777344 306.058594 174.71875 304.667969 167.777344 302.800781 C 160.90625 300.941406 154.351562 298.476562 148.042969 295.3125 C 135.578125 288.867188 123.613281 280.289062 114.351562 269.964844 C 104.90625 259.582031 97.625 247.339844 92.804688 234.085938 C 88.097656 221 85.949219 206.78125 86.828125 192.96875 C 87.222656 186.035156 88.488281 179.183594 90.351562 172.515625 C 92.3125 165.839844 94.863281 159.234375 98.089844 153.152344 C 104.492188 140.867188 113.648438 130.375 124.933594 122.25 C 130.859375 117.898438 136.460938 114.332031 142.664062 111.660156 C 148.820312 108.957031 155.226562 107.265625 162.179688 106.222656 C 175.917969 104.078125 189.757812 104.953125 202.484375 109.433594 C 215.328125 113.902344 226.816406 121.59375 235.511719 131.769531 C 239.816406 136.882812 243.617188 142.582031 246.28125 148.535156 C 249.011719 154.578125 250.835938 160.964844 251.664062 167.507812 C 252.515625 174 252.320312 180.835938 251.269531 187.269531 C 250.1875 193.628906 247.992188 199.730469 244.804688 205.457031 C 243.230469 208.308594 241.339844 211.125 239.367188 213.738281 C 237.425781 216.230469 235.222656 218.621094 232.859375 220.757812 C 228.132812 225.046875 222.667969 228.425781 216.726562 230.6875 C 210.773438 232.910156 204.339844 234.175781 198.144531 234.09375 C 195.042969 234.058594 191.988281 233.691406 188.914062 233.007812 C 187.28125 232.65625 186.070312 232.308594 184.648438 231.789062 C 183.1875 231.257812 181.703125 230.652344 180.292969 229.984375 C 168.972656 224.777344 160.664062 214.714844 158.910156 203.175781 C 158.019531 197.53125 158.769531 191.894531 161.144531 186.910156 L 162.105469 185.066406 L 163.148438 183.378906 C 163.867188 182.429688 164.703125 181.34375 165.632812 180.457031 C 167.460938 178.640625 169.507812 177.246094 171.640625 176.410156 C 175.753906 174.660156 181.171875 175.207031 183.542969 177.117188 C 183.707031 177.238281 183.824219 177.367188 183.960938 177.492188 C 182.847656 177.699219 181.644531 178.015625 180.316406 178.519531 C 177.964844 179.457031 175.394531 181.34375 173.800781 183.578125 C 172.960938 184.742188 172.625 185.414062 172.207031 186.164062 C 171.792969 186.894531 171.425781 187.847656 171.078125 188.699219 C 169.765625 192.296875 169.539062 196.503906 170.414062 200.050781 C 171.246094 203.648438 172.886719 206.644531 174.816406 209.109375 C 178.777344 214.105469 183.773438 217.042969 189.242188 218.78125 C 194.726562 220.441406 200.472656 220.480469 205.703125 219.28125 C 210.960938 218.082031 215.773438 215.78125 219.957031 212.484375 C 222.148438 210.792969 223.753906 209.125 225.402344 207.296875 C 227.011719 205.476562 228.492188 203.535156 229.785156 201.472656 C 232.402344 197.375 234.34375 192.855469 235.566406 188.15625 C 236.175781 185.792969 236.574219 183.4375 236.816406 180.960938 C 237.082031 178.339844 237.019531 176.089844 236.910156 173.769531 C 236.652344 169.121094 235.761719 164.394531 234.207031 159.902344 C 232.652344 155.359375 230.464844 151.242188 227.953125 147.441406 C 222.867188 139.761719 215.824219 133.382812 207.886719 128.941406 C 192.042969 119.976562 172.5625 118.582031 155.707031 124.191406 C 138.8125 129.613281 124.449219 141.488281 115.367188 156.273438 C 113.109375 159.964844 111.058594 163.808594 109.4375 167.988281 C 107.820312 172.097656 106.574219 176.160156 105.660156 180.394531 C 103.769531 188.808594 103.273438 197.492188 103.976562 206.039062 C 104.746094 214.582031 106.738281 222.988281 109.882812 230.910156 C 112.992188 238.90625 117.429688 246.398438 122.746094 253.089844 C 133.519531 266.480469 147.621094 276.332031 163.265625 282.605469 C 171.136719 285.722656 179.515625 287.765625 187.964844 288.589844 C 192.109375 289.011719 196.632812 289.121094 200.625 288.957031 C 204.691406 288.816406 208.800781 288.5 212.925781 287.960938 C 221.160156 286.867188 229.488281 284.824219 237.363281 281.429688 C 244.753906 278.300781 252.097656 274.597656 259.160156 269.757812 C 266.007812 264.84375 272.183594 259.410156 277.753906 253.109375 C 283.261719 246.859375 288.003906 239.988281 291.964844 232.914062 C 293.96875 229.359375 295.835938 225.667969 297.476562 221.867188 C 299.089844 218.070312 300.613281 214.21875 301.761719 210 C 303.953125 202.132812 305.4375 194.097656 306.125 185.917969 C 306.464844 181.839844 306.605469 177.734375 306.539062 173.632812 C 306.5 171.609375 306.417969 169.523438 306.265625 167.367188 C 306.066406 165.199219 305.84375 163.285156 305.574219 161.25 C 304.507812 153.207031 302.660156 145.132812 299.960938 137.363281 C 294.605469 122 286.3125 107.503906 275.421875 95.332031 C 272.722656 92.257812 269.867188 89.402344 266.878906 86.582031 C 265.382812 85.171875 263.769531 83.734375 262.171875 82.472656 C 260.617188 81.199219 259.027344 79.960938 257.414062 78.75 C 250.941406 73.886719 244.109375 69.625 236.894531 65.882812 C 229.527344 62.148438 221.859375 59.277344 214.046875 57.144531 C 206.257812 55.058594 198.457031 53.480469 190.363281 52.636719 C 174.273438 50.867188 157.8125 52.285156 142.300781 56.378906 C 126.683594 60.542969 111.933594 67.042969 98.578125 76.425781 C 92.066406 80.984375 85.875 86.1875 80.183594 91.652344 C 74.433594 97.15625 69.046875 103.175781 64.277344 109.640625 C 59.5 116.195312 55.421875 122.953125 51.816406 130.066406 C 50.015625 133.605469 48.367188 137.199219 46.820312 140.8125 C 45.203125 144.46875 43.867188 148.359375 42.648438 152.113281 C 37.78125 167.335938 35.679688 183.292969 35.746094 199.039062 C 35.738281 207.007812 36.546875 215.007812 37.933594 222.777344 C 39.355469 230.523438 41.144531 238.160156 43.640625 245.699219 C 46.09375 253.1875 49.101562 260.53125 52.667969 267.5625 C 54.457031 271.027344 56.300781 274.601562 58.480469 277.957031 C 60.601562 281.296875 62.746094 284.539062 65.066406 287.71875 C 74.234375 300.476562 85.335938 311.90625 97.773438 321.429688 C 110.226562 330.992188 124.167969 338.664062 138.851562 344.035156 C 146.136719 346.722656 153.734375 348.988281 161.308594 350.605469 C 168.894531 352.273438 176.609375 353.511719 184.398438 354.136719 C 188.28125 354.414062 192.207031 354.679688 196.132812 354.53125 L 207.746094 353.90625 C 211.621094 353.621094 215.464844 353.679688 219.359375 353.027344 C 223.214844 352.476562 227.035156 351.855469 230.832031 351.054688 C 246.03125 347.941406 260.769531 342.738281 274.554688 335.777344 C 288.355469 328.699219 301.089844 319.839844 312.449219 309.363281 C 317.902344 303.871094 322.925781 298.136719 328.171875 292.542969 C 333.242188 286.757812 337.890625 280.613281 342.023438 274.128906 C 346.152344 267.632812 349.730469 260.835938 352.75 253.757812 L 360.9375 232.390625 C 365.542969 217.792969 368 202.652344 368.898438 187.476562 C 367.492188 202.609375 364.519531 217.625 359.484375 231.890625 "/>
</g>
</g>
</svg>
